<?xml version="1.0" standalone="no"?>
<!DOCTYPE svg PUBLIC "-//W3C//DTD SVG 20010904//EN"
 "http://www.w3.org/TR/2001/REC-SVG-20010904/DTD/svg10.dtd">
<svg version="1.0" xmlns="http://www.w3.org/2000/svg"
 width="259.000000pt" height="259.000000pt" viewBox="0 0 259.000000 259.000000"
 preserveAspectRatio="xMidYMid meet">
<metadata>
Created by potrace 1.14, written by Peter Selinger 2001-2017
</metadata>
<g transform="translate(0.000000,259.000000) scale(0.100000,-0.100000)"
fill="#000000" stroke="none">
<path d="M541 2046 c-4 -6 -22 -51 -39 -101 -17 -49 -54 -155 -82 -235 -28
-80 -68 -194 -90 -255 -21 -60 -46 -130 -55 -155 -9 -25 -18 -52 -20 -60 -2
-8 -58 -168 -124 -355 -67 -187 -121 -343 -121 -348 0 -4 77 -6 172 -5 l172 3
53 174 c29 96 55 177 58 179 3 3 128 6 278 6 l274 1 54 -180 55 -180 173 -3
172 -2 -6 22 c-7 24 -36 106 -132 378 -30 85 -61 173 -68 195 -7 22 -29 84
-48 138 -20 53 -91 254 -158 445 l-122 348 -194 0 c-128 1 -196 -3 -202 -10z
m220 -303 c9 -32 44 -146 78 -253 34 -107 64 -204 66 -216 3 -12 11 -40 19
-62 8 -23 11 -44 7 -46 -15 -9 -381 -4 -381 6 0 5 7 30 15 56 26 83 97 317 99
327 1 6 14 48 28 95 15 47 29 100 33 118 4 17 10 32 14 32 3 0 14 -26 22 -57z"/>
<path d="M2010 1575 l0 -222 -197 -1 c-109 0 -205 -1 -214 -1 -13 -1 -16 -13
-15 -68 l1 -68 213 -3 212 -2 0 -219 c0 -166 3 -220 13 -223 10 -4 60 -3 117
1 14 1 16 30 15 221 l0 220 215 0 215 0 -1 65 c0 36 -4 68 -7 71 -4 4 -93 7
-199 6 -106 0 -200 2 -208 4 -13 3 -15 36 -15 221 l0 218 -72 1 -73 2 0 -223z"/>
</g>
</svg>
