<svg width="24" height="24" viewBox="0 0 24 24" fill="none" xmlns="http://www.w3.org/2000/svg">
<path d="M24 12C24 5.38105 18.6189 0 12 0C5.38105 0 0 5.38105 0 12C0 18.6189 5.38105 24 12 24C18.6189 24 24 18.6189 24 12ZM11.1916 16.1432L6.56842 11.4947C6.34105 11.2674 6.24 10.9895 6.24 10.6863C6.24 10.3832 6.34105 10.1053 6.56842 9.87789C6.99789 9.44842 7.73053 9.44842 8.16 9.87789L12 13.7432L15.84 9.90316C16.2695 9.47368 17.0021 9.47368 17.4316 9.90316C17.8611 10.3326 17.8611 11.0653 17.4316 11.4947L12.8084 16.1432C12.6063 16.3453 12.3032 16.4716 12 16.4716C11.6968 16.4716 11.4189 16.3453 11.1916 16.1432Z" fill="#5928E5"/>
</svg>
