<svg width="15" height="19" viewBox="0 0 15 19" fill="none" xmlns="http://www.w3.org/2000/svg">
<path d="M7.5 0.759766C3.777 0.759766 0.75 3.82713 0.75 7.59977C0.75 11.3724 3.777 14.4398 7.5 14.4398C11.223 14.4398 14.25 11.3724 14.25 7.59977C14.25 3.82713 11.223 0.759766 7.5 0.759766ZM7.5 13.5186C4.281 13.5186 1.659 10.8647 1.659 7.59977C1.659 4.33481 4.281 1.68089 7.5 1.68089C10.719 1.68089 13.341 4.33785 13.341 7.59977C13.341 10.8617 10.719 13.5186 7.5 13.5186Z" fill="white"/>
<path d="M7.71299 4.63847C8.49599 4.63847 9.23099 4.95159 9.78599 5.52007C10.002 5.74199 10.353 5.74199 10.572 5.52615C10.791 5.30727 10.791 4.95159 10.578 4.72967C9.81299 3.94535 8.79599 3.51367 7.71299 3.51367C5.48099 3.51367 3.66299 5.37719 3.66299 7.66631C3.66299 9.95543 5.48099 11.819 7.71299 11.819C8.71799 11.819 9.68099 11.439 10.425 10.7489C10.65 10.5391 10.668 10.1834 10.461 9.95543C10.254 9.72743 9.90299 9.70919 9.67799 9.91895C9.13799 10.4175 8.44199 10.6942 7.71599 10.6942C6.09599 10.6942 4.77599 9.33527 4.77599 7.66631C4.77599 5.99735 6.09299 4.63847 7.71299 4.63847Z" fill="white"/>
</svg>
