<svg width="24" height="24" viewBox="0 0 24 24" fill="none" xmlns="http://www.w3.org/2000/svg">
<path d="M7.52053 13.8024H22.2017C23.1827 13.8024 24.0001 12.9905 24.0001 12.0162C24.0001 11.0419 23.1827 10.23 22.2017 10.23H7.52053C6.53961 10.23 5.72217 11.0419 5.72217 12.0162C5.72217 12.9905 6.50691 13.8024 7.52053 13.8024Z" fill="#5928E5"/>
<path d="M13.8638 24H22.169C23.1499 24 23.9673 23.1881 23.9673 22.2138C23.9673 21.2395 23.1499 20.4276 22.169 20.4276H13.8638C12.8829 20.4276 12.0654 21.2395 12.0654 22.2138C12.0654 23.2206 12.8829 24 13.8638 24Z" fill="#5928E5"/>
<path d="M1.79837 3.5724H22.2016C23.1826 3.5724 24 2.76049 24 1.7862C24 0.811908 23.1826 0 22.2016 0H1.79837C0.817439 0 0 0.811908 0 1.7862C0 2.76049 0.784741 3.5724 1.79837 3.5724Z" fill="#5928E5"/>
</svg>
