<svg width="24" height="24" viewBox="0 0 24 24" fill="none" xmlns="http://www.w3.org/2000/svg">
<path d="M6.28942 0C4.67149 0 3.05857 0.718263 1.83468 2.14943C-0.613042 5.01171 -0.610079 9.59722 1.83468 12.4616L11.4637 23.746C11.5323 23.8263 11.6148 23.8902 11.7063 23.9338C11.7977 23.9775 11.8962 24 11.9956 24C12.0951 24 12.1936 23.9775 12.285 23.9338C12.3764 23.8902 12.459 23.8263 12.5276 23.746C15.7412 19.9881 18.9506 16.2281 22.1642 12.4701C24.6119 9.60775 24.6119 5.02028 22.1642 2.15796C19.7165 -0.70436 15.6948 -0.704428 13.2471 2.15796L11.9994 3.60797L10.7518 2.14943C9.52794 0.718263 7.90736 0 6.28942 0ZM6.28942 1.60354C7.51128 1.60354 8.73575 2.16193 9.68788 3.27532L11.4713 5.36504C11.54 5.44528 11.6225 5.50916 11.7139 5.5528C11.8054 5.59645 11.9038 5.61896 12.0033 5.61896C12.1028 5.61896 12.2012 5.59645 12.2926 5.5528C12.3841 5.50916 12.4666 5.44528 12.5352 5.36504L14.311 3.28385C16.2153 1.05702 19.196 1.05706 21.1003 3.28385C23.0045 5.51063 23.0045 9.11742 21.1003 11.3442C18.0647 14.894 15.0351 18.4478 11.9994 21.9975L2.89863 11.3357C0.995587 9.10602 0.994387 5.50204 2.89863 3.27532C3.85074 2.16193 5.06757 1.60354 6.28942 1.60354Z" fill="#FFD9D9"/>
</svg>
