<svg width="20" height="21" viewBox="0 0 20 21" fill="none" xmlns="http://www.w3.org/2000/svg">
<path d="M5.80529 0.244141C2.60817 0.244141 0 2.85231 0 6.04943V14.4389C0 17.636 2.60817 20.2441 5.80529 20.2441H14.1947C17.3918 20.2441 20 17.636 20 14.4389V6.04943C20 2.85231 17.3918 0.244141 14.1947 0.244141H5.80529ZM5.80529 1.7826H14.1947C16.5595 1.7826 18.4615 3.68164 18.4615 6.04943V14.4389C18.4615 16.8036 16.5625 18.7057 14.1947 18.7057H5.80529C3.4405 18.7057 1.53846 16.8066 1.53846 14.4389V6.04943C1.53846 3.68465 3.4375 1.7826 5.80529 1.7826ZM15.7692 3.32106C15.1322 3.32106 14.6154 3.83789 14.6154 4.47491C14.6154 5.11193 15.1322 5.62876 15.7692 5.62876C16.4062 5.62876 16.9231 5.11193 16.9231 4.47491C16.9231 3.83789 16.4062 3.32106 15.7692 3.32106ZM10 4.85953C7.03425 4.85953 4.61538 7.2784 4.61538 10.2441C4.61538 13.2099 7.03425 15.6288 10 15.6288C12.9657 15.6288 15.3846 13.2099 15.3846 10.2441C15.3846 7.2784 12.9657 4.85953 10 4.85953ZM10 6.39799C12.1334 6.39799 13.8462 8.11073 13.8462 10.2441C13.8462 12.3776 12.1334 14.0903 10 14.0903C7.86659 14.0903 6.15385 12.3776 6.15385 10.2441C6.15385 8.11073 7.86659 6.39799 10 6.39799Z" fill="white"/>
</svg>
