<svg width="24" height="24" viewBox="0 0 24 24" fill="none" xmlns="http://www.w3.org/2000/svg">
<g clip-path="url(#clip0)">
<path d="M8.92249 2.59607V20.1431L12.811 21.4041V6.68807C12.811 5.99807 13.113 5.53707 13.5997 5.69707C14.2314 5.87707 14.3545 6.51107 14.3545 7.20207V13.0771C16.779 14.2701 18.6871 13.0751 18.6871 9.92507C18.6871 6.68807 17.5687 5.25007 14.279 4.09807C12.9809 3.65007 10.5762 2.91207 8.92547 2.59607H8.92249ZM13.547 18.8371L19.8005 16.5621C20.5107 16.3041 20.6209 15.9371 20.0448 15.7441C19.4628 15.5521 18.4189 15.6051 17.7038 15.8671L13.5272 17.3671V14.9801L13.7655 14.8951C13.7655 14.8951 14.9584 14.4751 16.6589 14.2801C18.3434 14.1001 20.4183 14.3101 22.0591 14.9411C23.8946 15.5421 24.0853 16.4131 23.6245 17.0131C23.1626 17.6131 22.0134 18.0491 22.0134 18.0491L13.5272 21.1561V18.8601L13.547 18.8371ZM1.79398 18.6001C-0.0931796 18.0551 -0.405058 16.9321 0.451118 16.2801C1.24671 15.6941 2.59652 15.2281 2.59652 15.2281L8.17358 13.2151V15.5281L4.17578 17.0001C3.47554 17.2711 3.35635 17.6321 3.93839 17.8261C4.52044 18.0211 5.56433 17.9761 6.26556 17.7061L8.19047 17.0001V19.0741C8.07128 19.1041 7.9362 19.1181 7.8031 19.1471C5.8772 19.4781 3.8341 19.3431 1.8059 18.6681L1.79398 18.6001Z" fill="#AAAAAA"/>
</g>
<defs>
<clipPath id="clip0">
<rect width="23.8378" height="24" fill="white"/>
</clipPath>
</defs>
</svg>
