<svg width="21" height="21" viewBox="0 0 21 21" fill="none" xmlns="http://www.w3.org/2000/svg">
<path d="M10.5 0C8.4233 0 6.39323 0.615814 4.66652 1.76957C2.9398 2.92332 1.59399 4.5632 0.799269 6.48182C0.00454943 8.40045 -0.203385 10.5116 0.201759 12.5484C0.606904 14.5852 1.60693 16.4562 3.07538 17.9246C4.54383 19.3931 6.41475 20.3931 8.45155 20.7982C10.4884 21.2034 12.5996 20.9954 14.5182 20.2007C16.4368 19.406 18.0767 18.0602 19.2304 16.3335C20.3842 14.6068 21 12.5767 21 10.5C20.9947 7.71685 19.8868 5.0492 17.9188 3.08122C15.9508 1.11323 13.2832 0.00528615 10.5 0ZM14.36 10.69L10.6775 14.3725C10.6307 14.4191 10.5673 14.4452 10.5013 14.4452C10.4352 14.4452 10.3718 14.4191 10.325 14.3725L6.635 10.69C6.40143 10.4671 6.21477 10.1997 6.08601 9.90361C5.95724 9.60751 5.88897 9.28866 5.88521 8.96579C5.88144 8.64293 5.94225 8.32258 6.06407 8.02356C6.1859 7.72454 6.36626 7.45288 6.59458 7.22457C6.82289 6.99626 7.09454 6.81589 7.39356 6.69407C7.69258 6.57225 8.01294 6.51144 8.3358 6.5152C8.65866 6.51897 8.97751 6.58724 9.27361 6.716C9.56971 6.84477 9.83708 7.03142 10.06 7.265L10.325 7.53C10.3718 7.57656 10.4352 7.6027 10.5013 7.6027C10.5673 7.6027 10.6307 7.57656 10.6775 7.53L10.9425 7.265C11.1652 7.03097 11.4325 6.8439 11.7287 6.71483C12.0249 6.58575 12.3439 6.51728 12.6669 6.51346C12.99 6.50964 13.3105 6.57053 13.6096 6.69256C13.9088 6.81459 14.1804 6.99528 14.4086 7.22397C14.6368 7.45266 14.8169 7.72473 14.9383 8.02413C15.0597 8.32353 15.1198 8.6442 15.1153 8.96724C15.1108 9.29027 15.0416 9.60913 14.9119 9.90501C14.7822 10.2009 14.5945 10.4678 14.36 10.69Z" fill="black"/>
</svg>
