<svg width="20" height="21" viewBox="0 0 20 21" fill="none" xmlns="http://www.w3.org/2000/svg">
<path d="M20 2.60392C19.2513 3.01257 18.4993 3.32106 17.666 3.42523C18.4993 2.80824 19.1667 1.7826 19.4987 0.652795C18.6654 1.26978 17.832 1.67844 16.9173 1.88677C16.084 0.861128 15 0.244141 13.8346 0.244141C11.582 0.244141 9.74935 2.49975 9.74935 5.26818C9.74935 5.68084 9.74935 6.08949 9.83398 6.39799C6.41602 6.19366 3.41797 4.24254 1.41602 1.16562C0.999349 1.88677 0.833333 2.80824 0.833333 3.72972C0.833333 5.47651 1.58203 7.01497 2.66602 7.93645C1.9987 7.83228 1.33464 7.62796 0.833333 7.31946C0.833333 7.31946 0.833333 7.31946 0.833333 7.42363C0.833333 9.88356 2.24935 11.9348 4.08203 12.3475C3.75 12.4477 3.41797 12.5518 3.0013 12.5518C2.75065 12.5518 2.5 12.5518 2.24935 12.4477C2.75065 14.499 4.2513 15.9373 6.08398 15.9373C4.66797 17.2714 2.91667 18.0887 0.999349 18.0887C0.667317 18.0887 0.332032 18.0887 0 17.9885C1.83268 19.4228 4.00065 20.2441 6.25 20.2441C13.8346 20.2441 17.9167 12.5518 17.9167 5.88517C17.9167 5.68084 17.9167 5.47651 17.9167 5.26818C18.75 4.55103 19.4173 3.62956 20 2.60392Z" fill="white"/>
</svg>
