<svg width="24" height="24" viewBox="0 0 24 24" fill="none" xmlns="http://www.w3.org/2000/svg">
<path fill-rule="evenodd" clip-rule="evenodd" d="M13.0769 11.0769H17.7203C18.1291 11.0769 18.4615 11.4088 18.4615 11.8182V12.4895C18.4615 12.899 18.1297 13.2308 17.7203 13.2308H13.0769V17.8742C13.0769 18.2829 12.7451 18.6154 12.3357 18.6154H11.6643C11.2549 18.6154 10.9231 18.2835 10.9231 17.8742V13.2308H6.27968C5.8709 13.2308 5.53846 12.8989 5.53846 12.4895V11.8182C5.53846 11.4087 5.87032 11.0769 6.27968 11.0769H10.9231V6.43353C10.9231 6.02475 11.2549 5.69231 11.6643 5.69231H12.3357C12.7451 5.69231 13.0769 6.02417 13.0769 6.43353V11.0769ZM0 12C0 5.37258 5.37113 0 12 0C18.6274 0 24 5.37113 24 12C24 18.6274 18.6289 24 12 24C5.37258 24 0 18.6289 0 12Z" fill="#2C3842"/>
</svg>
