<svg width="25" height="24" viewBox="0 0 25 24" fill="none" xmlns="http://www.w3.org/2000/svg">
<g clip-path="url(#clip0)">
<path d="M9.28961 14.9194L15.359 3.88261C15.4422 3.73131 15.5261 3.58061 15.6011 3.42421C15.6691 3.28221 15.7269 3.13881 15.7646 2.98391C15.8443 2.65801 15.823 2.31831 15.699 2.00721C15.576 1.69771 15.3596 1.43941 15.0831 1.27171C14.8088 1.10459 14.4861 1.03672 14.1683 1.07931C13.8498 1.12231 13.559 1.27281 13.3297 1.50811C13.2211 1.61991 13.1315 1.74421 13.0484 1.87711C12.9571 2.02341 12.8746 2.17501 12.7912 2.32631L12.4074 3.02421L12.0235 2.32631C11.9404 2.17481 11.8579 2.02331 11.7666 1.87711C11.6834 1.74421 11.5938 1.61991 11.485 1.50811C11.256 1.27281 10.9652 1.12241 10.6467 1.07911C10.3289 1.03663 10.0062 1.10457 9.7319 1.27171C9.45538 1.43941 9.23886 1.69771 9.11579 2.00721C8.99203 2.31821 8.97068 2.65801 9.05024 2.98391C9.08798 3.13891 9.14579 3.28231 9.21392 3.42421C9.28872 3.58061 9.37264 3.73121 9.45598 3.88261L10.6955 6.13691L5.8659 14.9194H2.55631C2.38985 14.9194 2.22348 14.9187 2.05711 14.9286C1.90594 14.9376 1.75874 14.957 1.61214 15C1.30344 15.0906 1.03387 15.2798 0.839096 15.548C0.645414 15.8145 0.540527 16.1409 0.540527 16.4759C0.540527 16.8111 0.645513 17.1371 0.839096 17.4036C1.03377 17.6719 1.30344 17.8611 1.61204 17.9516C1.75874 17.9946 1.90604 18.0139 2.05711 18.0231C2.22348 18.0331 2.38985 18.0321 2.55631 18.0321H15.5652C15.5822 17.9964 15.6238 17.9027 15.6645 17.7624C16.0767 16.3473 15.0531 14.9194 13.6436 14.9194H9.28961ZM3.63249 18.5418L2.84565 20.0426C2.7644 20.1979 2.68236 20.3526 2.60886 20.5131C2.54231 20.6589 2.48569 20.8061 2.44885 20.9651C2.37088 21.2997 2.39163 21.6485 2.51291 21.968C2.63329 22.2855 2.84525 22.551 3.11581 22.7229C3.38667 22.8949 3.70093 22.9645 4.01102 22.9204C4.3228 22.8764 4.60746 22.7218 4.83174 22.4802C4.93821 22.3654 5.02582 22.2378 5.10706 22.1015C5.19665 21.9512 5.2773 21.7956 5.35885 21.6403L6.49999 19.4636C6.41099 19.3146 5.55909 17.9932 3.63249 18.5418ZM24.0795 15.5362C23.888 15.2749 23.6159 15.0848 23.3058 14.9955C23.1592 14.953 23.0117 14.9339 22.8605 14.925C22.6938 14.9151 22.5276 14.9159 22.3609 14.9159H19.0625L14.7031 7.09891C14.0421 7.79941 13.7464 8.58391 13.6331 9.29651C13.4687 10.3298 13.6695 11.3899 14.1754 12.2969L19.4138 21.6902C19.4973 21.8396 19.5797 21.9892 19.6712 22.1337C19.7543 22.2647 19.8439 22.3874 19.9529 22.4977C20.1823 22.73 20.4731 22.8786 20.7921 22.9209C21.1091 22.9633 21.4307 22.8965 21.7075 22.731C21.9841 22.5657 22.201 22.3106 22.3243 22.0053C22.4481 21.6981 22.4694 21.3628 22.3897 21.0412C22.3519 20.8883 22.2941 20.7467 22.2258 20.6066C22.151 20.4523 22.0671 20.3036 21.9837 20.1542L20.7759 17.988H22.3611C22.5277 17.988 22.6939 17.9889 22.8606 17.979C23.0118 17.97 23.1593 17.951 23.3059 17.9085C23.616 17.8192 23.8881 17.6291 24.0796 17.3678C24.274 17.1026 24.3788 16.7816 24.3784 16.452C24.3787 16.1224 24.274 15.8014 24.0795 15.5362Z" fill="#AAAAAA"/>
</g>
<defs>
<clipPath id="clip0">
<rect width="23.8378" height="24" fill="white" transform="translate(0.540527)"/>
</clipPath>
</defs>
</svg>
