<svg width="15" height="15" viewBox="0 0 15 15" fill="none" xmlns="http://www.w3.org/2000/svg">
<path d="M7.5 0C3.36333 0 0 3.36333 0 7.5C0 11.6367 3.36333 15 7.5 15C11.6367 15 15 11.6367 15 7.5C15 3.36333 11.6367 0 7.5 0ZM7.5 13.99C3.92333 13.99 1.01 11.08 1.01 7.5C1.01 3.92 3.92333 1.01 7.5 1.01C11.0767 1.01 13.99 3.92333 13.99 7.5C13.99 11.0767 11.0767 13.99 7.5 13.99Z" fill="white"/>
<path d="M7.73663 4.25335C8.60663 4.25335 9.42329 4.59669 10.04 5.22002C10.28 5.46335 10.67 5.46335 10.9133 5.22669C11.1566 4.98669 11.1566 4.59669 10.92 4.35335C10.07 3.49335 8.93996 3.02002 7.73663 3.02002C5.25663 3.02002 3.23663 5.06335 3.23663 7.57335C3.23663 10.0834 5.25663 12.1267 7.73663 12.1267C8.85329 12.1267 9.92329 11.71 10.75 10.9534C11 10.7234 11.02 10.3334 10.79 10.0834C10.56 9.83335 10.17 9.81335 9.91996 10.0434C9.31996 10.59 8.54663 10.8934 7.73996 10.8934C5.93996 10.8934 4.4733 9.40335 4.4733 7.57335C4.4733 5.74335 5.93663 4.25335 7.73663 4.25335Z" fill="white"/>
</svg>
