<svg xmlns="http://www.w3.org/2000/svg" version="1.1" xmlns:xlink="http://www.w3.org/1999/xlink" xmlns:svgjs="http://svgjs.com/svgjs" width="1000" height="1000"><rect width="1000" height="1000" rx="150" ry="150" fill="#ffffff"></rect><g transform="matrix(3.088803088803089,0,0,3.088803088803089,100.13462988658301,263.36794914333973)"><svg xmlns="http://www.w3.org/2000/svg" version="1.1" xmlns:xlink="http://www.w3.org/1999/xlink" xmlns:svgjs="http://svgjs.com/svgjs" width="259" height="153"><svg width="259" height="153" viewBox="0 0 259 153" fill="none" xmlns="http://www.w3.org/2000/svg">
<path d="M112.743 153L101.719 116.807H46.2847L35.2603 153H0.522949L54.189 0.322266H93.6064L147.48 153H112.743ZM94.0225 89.7656C83.8301 56.9697 78.0752 38.4224 76.7578 34.1235C75.5098 29.8247 74.6084 26.4272 74.0537 23.9312C71.7656 32.8062 65.2134 54.751 54.397 89.7656H94.0225Z" fill="#5928E5"></path>
<path d="M215.499 70.7329H258.349V85.0854H215.499V129.391H201.042V85.0854H158.401V70.7329H201.042V26.2192H215.499V70.7329Z" fill="#FFD9D9"></path>
</svg></svg></g></svg>