<svg width="25" height="24" viewBox="0 0 25 24" fill="none" xmlns="http://www.w3.org/2000/svg">
<g clip-path="url(#clip0)">
<path d="M22.4909 13.2982L18.5984 15.5162L15.1071 12.0232L18.6262 8.50218L22.4909 10.7042C22.719 10.834 22.9087 11.0225 23.0408 11.2504C23.1728 11.4783 23.2424 11.7374 23.2424 12.0012C23.2424 12.265 23.1728 12.5241 23.0408 12.752C22.9087 12.9798 22.719 13.1683 22.4909 13.2982ZM1.94962 0.924181C1.87591 1.10434 1.83812 1.29734 1.83838 1.49218V22.5092C1.83838 22.7262 1.88308 22.9282 1.96154 23.1092L13.0412 12.0222L1.94962 0.924181ZM14.0741 10.9892L17.3101 7.75118L4.04835 0.195181C3.76409 0.030716 3.43303 -0.0323536 3.10874 0.0161806L14.0741 10.9892ZM14.0741 13.0562L3.14847 23.9892C3.44445 24.0252 3.75633 23.9732 4.04835 23.8062L17.2823 16.2662L14.0741 13.0562Z" fill="#AAAAAA"/>
</g>
<defs>
<clipPath id="clip0">
<rect width="23.8378" height="24" fill="white" transform="translate(0.621582)"/>
</clipPath>
</defs>
</svg>
