<svg width="24" height="24" viewBox="0 0 24 24" fill="none" xmlns="http://www.w3.org/2000/svg">
<g clip-path="url(#clip0)">
<path d="M19.7638 10.2809L19.8093 12.9743H19.7865L19.0125 10.2809H17.7374V13.6734H18.5798L18.5343 10.8884H18.5572L19.3881 13.6734H20.6062V10.2809H19.7638ZM3.72387 10.2809L3.08641 13.7079H4.00854L4.47526 10.5904H4.49801L4.95341 13.7078H5.86411L5.23797 10.2809H3.72387ZM8.86937 10.2809L8.44823 12.8941H8.42539L8.00425 10.2809H6.6154L6.54707 13.7079H7.40086L7.4237 10.6247H7.43503L8.00416 13.7078H8.86937L9.4386 10.6248H9.46144L9.48409 13.7078H10.3379L10.2582 10.2809H8.86937ZM1.65207 12.7336C1.68614 12.8138 1.67481 12.9285 1.66339 12.9858C1.64065 13.1004 1.56099 13.215 1.33324 13.215C1.11701 13.215 0.991759 13.089 0.991759 12.9055V12.5732H0.0810547V12.8368C0.0810547 13.6047 0.684351 13.8339 1.32191 13.8339C1.93663 13.8339 2.44885 13.6161 2.5286 13.0545C2.5741 12.7565 2.53993 12.5617 2.5286 12.4929C2.36919 11.7709 1.07152 11.5646 0.980337 11.1634C0.969014 11.0946 0.969014 11.0259 0.980337 10.98C1.00318 10.8654 1.08284 10.7508 1.28775 10.7508C1.49265 10.7508 1.60658 10.8768 1.60658 11.0603V11.2666H2.46027V11.0259C2.46027 10.2809 1.78864 10.1663 1.31049 10.1663C0.707195 10.1663 0.206303 10.3726 0.115222 10.9227C0.0923777 11.0717 0.0810547 11.2093 0.126545 11.3812C0.263215 12.0918 1.48133 12.2981 1.65197 12.7336H1.65207ZM12.7286 12.7336C12.7627 12.8139 12.7513 12.917 12.7399 12.9858C12.7171 13.1004 12.6374 13.215 12.4098 13.215C12.1935 13.215 12.0683 13.089 12.0683 12.9055V12.5732H11.1575V12.8368C11.1575 13.5932 11.7495 13.8225 12.387 13.8225C13.0018 13.8225 13.5027 13.6162 13.5823 13.0431C13.6279 12.7451 13.5937 12.5617 13.5823 12.4815C13.4457 11.7709 12.1593 11.5531 12.0683 11.1635C12.0569 11.0947 12.0569 11.0259 12.0683 10.98C12.0911 10.8654 12.1707 10.7508 12.3756 10.7508C12.5691 10.7508 12.6944 10.8768 12.6944 11.0603V11.2666H13.5367V11.0259C13.5367 10.2809 12.8765 10.1663 12.3985 10.1663C11.7951 10.1663 11.3055 10.3611 11.2145 10.9227C11.1917 11.0717 11.1917 11.2093 11.2258 11.3812C11.3625 12.0918 12.5578 12.2866 12.7286 12.7336ZM15.5973 13.1921C15.8364 13.1921 15.9046 13.0316 15.9274 12.9399C15.9388 12.9056 15.9388 12.8482 15.9388 12.8139V10.2809H16.8039V12.7451C16.8039 12.8139 16.8039 12.9399 16.7926 12.9743C16.7357 13.6162 16.2348 13.8225 15.6086 13.8225C14.9826 13.8225 14.4817 13.6162 14.4247 12.9743C14.4247 12.9399 14.4134 12.8139 14.4134 12.7451V10.2809H15.2785V12.8139C15.2785 12.8597 15.2785 12.9055 15.2899 12.9399C15.2899 13.0316 15.3582 13.1921 15.5973 13.1921ZM22.7008 13.1577C22.9513 13.1577 23.0309 12.9972 23.0537 12.9055C23.0651 12.8712 23.0651 12.8138 23.0651 12.7795V12.2866H22.7122V11.7823H23.9189V12.6993C23.9189 12.768 23.9189 12.8138 23.9075 12.9285C23.8506 13.5588 23.3155 13.7766 22.7122 13.7766C22.1088 13.7766 21.5738 13.5588 21.5169 12.9285C21.5055 12.8138 21.5055 12.768 21.5055 12.6992V11.2552C21.5055 11.1978 21.5169 11.0832 21.5169 11.0259C21.5966 10.384 22.1089 10.1777 22.7122 10.1777C23.3155 10.1777 23.8392 10.384 23.9075 11.0259C23.9189 11.129 23.9189 11.2551 23.9189 11.2551V11.3697H23.0651V11.1749C23.0651 11.1749 23.0651 11.0946 23.0537 11.0488C23.0424 10.9686 22.974 10.7967 22.7122 10.7967C22.4618 10.7967 22.3934 10.9571 22.3707 11.0488C22.3593 11.0946 22.3593 11.152 22.3593 11.2093V12.7795C22.3593 12.8253 22.3593 12.8711 22.3707 12.9055C22.3707 12.9972 22.4618 13.1577 22.7008 13.1577Z" fill="#AAAAAA"/>
</g>
<defs>
<clipPath id="clip0">
<rect width="23.8378" height="24" fill="white" transform="translate(0.0810547)"/>
</clipPath>
</defs>
</svg>
