<svg width="24" height="24" viewBox="0 0 24 24" fill="none" xmlns="http://www.w3.org/2000/svg">
<path d="M9.78948 19.5789C7.8533 19.5789 5.96061 19.0048 4.35074 17.9291C2.74087 16.8534 1.48613 15.3245 0.745183 13.5357C0.00424159 11.747 -0.189623 9.77862 0.188106 7.87964C0.565835 5.98067 1.49819 4.23636 2.86727 2.86727C4.23636 1.49819 5.98067 0.565835 7.87964 0.188106C9.77862 -0.189623 11.747 0.00424159 13.5357 0.745183C15.3245 1.48613 16.8534 2.74087 17.9291 4.35074C19.0048 5.96061 19.5789 7.8533 19.5789 9.78948C19.5789 12.3858 18.5476 14.8758 16.7117 16.7117C14.8758 18.5476 12.3858 19.5789 9.78948 19.5789V19.5789ZM9.78948 2.02541C8.25389 2.02541 6.75279 2.48077 5.47599 3.33389C4.1992 4.18702 3.20406 5.3996 2.61642 6.8183C2.02877 8.23699 1.87502 9.79809 2.1746 11.3042C2.47417 12.8102 3.21363 14.1937 4.29945 15.2795C5.38528 16.3653 6.7687 17.1048 8.27478 17.4044C9.78086 17.7039 11.342 17.5502 12.7607 16.9625C14.1794 16.3749 15.3919 15.3798 16.2451 14.103C17.0982 12.8262 17.5535 11.3251 17.5535 9.78948C17.5535 7.73032 16.7355 5.7555 15.2795 4.29945C13.8235 2.84341 11.8486 2.02541 9.78948 2.02541Z" fill="#818B88"/>
<path d="M23.0154 24C22.7542 23.9998 22.5037 23.8958 22.3191 23.711L15.4222 16.8147C15.2481 16.6279 15.1534 16.3809 15.1579 16.1257C15.1624 15.8705 15.2658 15.627 15.4463 15.4465C15.6268 15.266 15.8704 15.1626 16.1256 15.1581C16.3809 15.1535 16.6279 15.2483 16.8147 15.4223L23.7117 22.3186C23.8493 22.4564 23.943 22.6319 23.9809 22.8229C24.0189 23.0138 23.9994 23.2118 23.9249 23.3917C23.8504 23.5716 23.7242 23.7254 23.5623 23.8337C23.4005 23.942 23.2101 23.9998 23.0154 24V24Z" fill="#818B88"/>
</svg>
