<svg width="21" height="21" viewBox="0 0 21 21" fill="none" xmlns="http://www.w3.org/2000/svg">
<path d="M10.5 0C8.4233 0 6.39323 0.615814 4.66652 1.76957C2.9398 2.92332 1.59399 4.5632 0.799269 6.48182C0.00454947 8.40045 -0.203385 10.5116 0.201759 12.5484C0.606904 14.5852 1.60693 16.4562 3.07538 17.9246C4.54383 19.3931 6.41475 20.3931 8.45156 20.7982C10.4884 21.2034 12.5996 20.9954 14.5182 20.2007C16.4368 19.406 18.0767 18.0602 19.2304 16.3335C20.3842 14.6068 21 12.5767 21 10.5C21 7.71523 19.8938 5.04451 17.9246 3.07538C15.9555 1.10625 13.2848 0 10.5 0ZM16.065 9.5775L13.3425 11.565L14.3775 14.7675C14.427 14.9181 14.4276 15.0805 14.3791 15.2314C14.3306 15.3823 14.2355 15.514 14.1075 15.6075C13.9798 15.6996 13.8263 15.7492 13.6688 15.7492C13.5112 15.7492 13.3577 15.6996 13.23 15.6075L10.5 13.6275L7.77 15.6075C7.64165 15.6982 7.48806 15.7463 7.3309 15.745C7.17375 15.7437 7.02097 15.693 6.89416 15.6002C6.76734 15.5073 6.67289 15.377 6.62415 15.2276C6.57541 15.0782 6.57483 14.9173 6.6225 14.7675L7.6575 11.565L4.935 9.5775C4.81824 9.48108 4.73339 9.35157 4.69163 9.20601C4.64987 9.06046 4.65315 8.90567 4.70103 8.76201C4.74892 8.61835 4.83917 8.49255 4.95992 8.40116C5.08066 8.30977 5.22624 8.25707 5.3775 8.25H8.745L9.7875 5.04C9.83682 4.88995 9.93226 4.7593 10.0602 4.66668C10.1881 4.57405 10.3421 4.52419 10.5 4.52419C10.658 4.52419 10.8119 4.57405 10.9398 4.66668C11.0677 4.7593 11.1632 4.88995 11.2125 5.04L12.255 8.25H15.6225C15.7793 8.25156 15.9316 8.3022 16.0581 8.39482C16.1846 8.48744 16.2789 8.61738 16.3277 8.76636C16.3766 8.91534 16.3775 9.07588 16.3304 9.22541C16.2832 9.37494 16.1904 9.50594 16.065 9.6V9.5775Z" fill="#FFD9D9"/>
</svg>
