<svg width="24" height="25" viewBox="0 0 24 25" fill="none" xmlns="http://www.w3.org/2000/svg">
<path d="M12 0.769531C5.36406 0.769531 0 6.13359 0 12.7695C0 19.4055 5.36406 24.7695 12 24.7695C18.6359 24.7695 24 19.4055 24 12.7695C24 6.13359 18.6359 0.769531 12 0.769531ZM17.8065 10.2811L10.7005 17.3594C10.4793 17.5806 10.2028 17.6912 9.92627 17.6912C9.64977 17.6912 9.34562 17.5806 9.15207 17.3594L5.64055 13.8755C5.19816 13.4331 5.19816 12.7419 5.64055 12.2995C6.08295 11.8571 6.77419 11.8571 7.21659 12.2995L9.92627 15.0092L16.2304 8.70501C16.6728 8.26262 17.3641 8.26262 17.8065 8.70501C18.2212 9.14741 18.2212 9.86631 17.8065 10.2811Z" fill="#5928E5"/>
</svg>
