<svg width="24" height="24" viewBox="0 0 24 24" fill="none" xmlns="http://www.w3.org/2000/svg">
<g clip-path="url(#clip0)">
<path d="M4.23639 21.033C6.33114 22.881 9.07845 24 12.081 24C15.0866 24 17.8309 22.881 19.9296 21.033C21.794 19.121 15.6428 12.324 12.081 9.616C8.52323 12.324 2.3681 19.121 4.23639 21.033ZM15.321 6.627C17.8041 9.588 22.7544 16.94 21.3559 19.539C23.0087 17.48 23.9999 14.861 23.9999 12.004C23.9999 8.664 22.6442 5.642 20.4541 3.468C20.4541 3.468 20.4272 3.446 20.3726 3.426C20.31 3.404 20.2216 3.381 20.0935 3.381C19.5055 3.381 18.1219 3.815 15.321 6.627ZM3.79142 3.426C3.73481 3.446 3.70997 3.467 3.706 3.468C1.51789 5.642 0.162109 8.664 0.162109 12.004C0.162109 14.858 1.15337 17.477 2.80513 19.537C1.4136 16.932 6.35995 9.586 8.84405 6.627C6.0431 3.814 4.65653 3.382 4.07052 3.382C3.94041 3.382 3.84903 3.403 3.79142 3.428V3.426ZM12.081 3.551C12.081 3.551 9.15593 1.828 6.87147 1.746C5.97457 1.713 5.42729 2.041 5.36074 2.085C7.49125 0.646 9.75585 0 12.0651 0H12.081C14.3993 0 16.6549 0.646 18.8013 2.085C18.7338 2.039 18.1905 1.713 17.2916 1.746C15.0071 1.828 12.081 3.545 12.081 3.545V3.551Z" fill="#AAAAAA"/>
</g>
<defs>
<clipPath id="clip0">
<rect width="23.8378" height="24" fill="white" transform="translate(0.162109)"/>
</clipPath>
</defs>
</svg>
